<mxfile host="app.diagrams.net" agent="Mozilla/5.0 (Windows NT 10.0; Win64; x64) AppleWebKit/537.36 (KHTML, like Gecko) Chrome/130.0.0.0 Safari/537.36" version="24.8.4">
  <diagram name="Page-1" id="123cZ_OKSwIK1ZScKi5q">
    <mxGraphModel dx="1436" dy="829" grid="1" gridSize="10" guides="1" tooltips="1" connect="1" arrows="1" fold="1" page="1" pageScale="1" pageWidth="827" pageHeight="1169" math="0" shadow="0">
      <root>
        <mxCell id="0" />
        <mxCell id="1" parent="0" />
        <mxCell id="wzdESjiVcGSlcyJqAEbl-3" value="home" style="verticalLabelPosition=bottom;verticalAlign=top;html=1;shadow=0;dashed=0;strokeWidth=1;shape=mxgraph.android.phone2;strokeColor=#c0c0c0;" vertex="1" parent="1">
          <mxGeometry x="50" y="290" width="220" height="390" as="geometry" />
        </mxCell>
        <mxCell id="wzdESjiVcGSlcyJqAEbl-4" value="" style="verticalLabelPosition=bottom;verticalAlign=top;html=1;shadow=0;dashed=0;strokeWidth=1;shape=mxgraph.android.contact_badge_normal;sketch=0;" vertex="1" parent="1">
          <mxGeometry x="65" y="335" width="20" height="20" as="geometry" />
        </mxCell>
        <mxCell id="wzdESjiVcGSlcyJqAEbl-7" value="Menu" style="text;html=1;align=center;verticalAlign=middle;whiteSpace=wrap;rounded=0;" vertex="1" parent="1">
          <mxGeometry x="190" y="330" width="60" height="30" as="geometry" />
        </mxCell>
        <mxCell id="wzdESjiVcGSlcyJqAEbl-8" value="" style="verticalLabelPosition=bottom;verticalAlign=top;html=1;shadow=0;dashed=0;strokeWidth=1;shape=mxgraph.android.contact_badge_normal;sketch=0;" vertex="1" parent="1">
          <mxGeometry x="65" y="370" width="20" height="20" as="geometry" />
        </mxCell>
        <mxCell id="wzdESjiVcGSlcyJqAEbl-9" value="" style="verticalLabelPosition=bottom;verticalAlign=top;html=1;shadow=0;dashed=0;strokeWidth=1;shape=mxgraph.android.contact_badge_normal;sketch=0;" vertex="1" parent="1">
          <mxGeometry x="125" y="370" width="20" height="20" as="geometry" />
        </mxCell>
        <mxCell id="wzdESjiVcGSlcyJqAEbl-10" value="" style="verticalLabelPosition=bottom;verticalAlign=top;html=1;shadow=0;dashed=0;strokeWidth=1;shape=mxgraph.android.contact_badge_normal;sketch=0;" vertex="1" parent="1">
          <mxGeometry x="180" y="370" width="20" height="20" as="geometry" />
        </mxCell>
        <mxCell id="wzdESjiVcGSlcyJqAEbl-11" value="" style="verticalLabelPosition=bottom;verticalAlign=top;html=1;shadow=0;dashed=0;strokeWidth=1;shape=mxgraph.android.contact_badge_normal;sketch=0;" vertex="1" parent="1">
          <mxGeometry x="230" y="370" width="20" height="20" as="geometry" />
        </mxCell>
        <mxCell id="wzdESjiVcGSlcyJqAEbl-12" value="home" style="text;html=1;align=center;verticalAlign=middle;whiteSpace=wrap;rounded=0;" vertex="1" parent="1">
          <mxGeometry x="45" y="610" width="60" height="30" as="geometry" />
        </mxCell>
        <mxCell id="wzdESjiVcGSlcyJqAEbl-13" value="tests" style="text;html=1;align=center;verticalAlign=middle;whiteSpace=wrap;rounded=0;" vertex="1" parent="1">
          <mxGeometry x="85" y="610" width="60" height="30" as="geometry" />
        </mxCell>
        <mxCell id="wzdESjiVcGSlcyJqAEbl-14" value="battle" style="text;html=1;align=center;verticalAlign=middle;whiteSpace=wrap;rounded=0;" vertex="1" parent="1">
          <mxGeometry x="120" y="610" width="60" height="30" as="geometry" />
        </mxCell>
        <mxCell id="wzdESjiVcGSlcyJqAEbl-15" value="groups" style="text;html=1;align=center;verticalAlign=middle;whiteSpace=wrap;rounded=0;" vertex="1" parent="1">
          <mxGeometry x="160" y="610" width="60" height="30" as="geometry" />
        </mxCell>
        <mxCell id="wzdESjiVcGSlcyJqAEbl-16" value="exam" style="text;html=1;align=center;verticalAlign=middle;whiteSpace=wrap;rounded=0;" vertex="1" parent="1">
          <mxGeometry x="210" y="610" width="60" height="30" as="geometry" />
        </mxCell>
        <mxCell id="wzdESjiVcGSlcyJqAEbl-19" value="trending tests" style="rounded=1;whiteSpace=wrap;html=1;" vertex="1" parent="1">
          <mxGeometry x="70" y="410" width="180" height="40" as="geometry" />
        </mxCell>
        <mxCell id="wzdESjiVcGSlcyJqAEbl-20" value="sponsors content" style="rounded=1;whiteSpace=wrap;html=1;" vertex="1" parent="1">
          <mxGeometry x="70" y="465" width="180" height="40" as="geometry" />
        </mxCell>
        <mxCell id="wzdESjiVcGSlcyJqAEbl-21" value="leaderboards" style="rounded=1;whiteSpace=wrap;html=1;" vertex="1" parent="1">
          <mxGeometry x="70" y="520" width="180" height="40" as="geometry" />
        </mxCell>
        <mxCell id="wzdESjiVcGSlcyJqAEbl-22" value="universities" style="rounded=1;whiteSpace=wrap;html=1;" vertex="1" parent="1">
          <mxGeometry x="70" y="570" width="180" height="40" as="geometry" />
        </mxCell>
        <mxCell id="wzdESjiVcGSlcyJqAEbl-24" value="tests" style="verticalLabelPosition=bottom;verticalAlign=top;html=1;shadow=0;dashed=0;strokeWidth=1;shape=mxgraph.android.phone2;strokeColor=#c0c0c0;" vertex="1" parent="1">
          <mxGeometry x="370" y="290" width="220" height="390" as="geometry" />
        </mxCell>
        <mxCell id="wzdESjiVcGSlcyJqAEbl-25" value="all tests" style="rounded=1;whiteSpace=wrap;html=1;" vertex="1" parent="1">
          <mxGeometry x="379" y="335" width="70" height="25" as="geometry" />
        </mxCell>
        <mxCell id="wzdESjiVcGSlcyJqAEbl-26" value="Subject1" style="text;html=1;align=center;verticalAlign=middle;whiteSpace=wrap;rounded=0;" vertex="1" parent="1">
          <mxGeometry x="450" y="332.5" width="60" height="30" as="geometry" />
        </mxCell>
        <mxCell id="wzdESjiVcGSlcyJqAEbl-28" value="+" style="text;html=1;align=center;verticalAlign=middle;whiteSpace=wrap;rounded=0;" vertex="1" parent="1">
          <mxGeometry x="490" y="332.5" width="60" height="30" as="geometry" />
        </mxCell>
        <mxCell id="wzdESjiVcGSlcyJqAEbl-29" value="" style="rounded=1;whiteSpace=wrap;html=1;" vertex="1" parent="1">
          <mxGeometry x="390" y="380" width="170" height="70" as="geometry" />
        </mxCell>
        <mxCell id="wzdESjiVcGSlcyJqAEbl-32" value="Subject1" style="text;html=1;align=center;verticalAlign=middle;whiteSpace=wrap;rounded=0;fontColor=#67AB9F;" vertex="1" parent="1">
          <mxGeometry x="389" y="370" width="60" height="30" as="geometry" />
        </mxCell>
        <mxCell id="wzdESjiVcGSlcyJqAEbl-33" value="Subject Title" style="text;html=1;align=center;verticalAlign=middle;whiteSpace=wrap;rounded=0;fontColor=#000000;" vertex="1" parent="1">
          <mxGeometry x="390" y="390" width="70" height="30" as="geometry" />
        </mxCell>
        <mxCell id="wzdESjiVcGSlcyJqAEbl-34" value="" style="group" vertex="1" connectable="0" parent="1">
          <mxGeometry x="414" y="412.5" width="120" height="15" as="geometry" />
        </mxCell>
        <mxCell id="wzdESjiVcGSlcyJqAEbl-30" value="3/15" style="rounded=1;whiteSpace=wrap;html=1;" vertex="1" parent="wzdESjiVcGSlcyJqAEbl-34">
          <mxGeometry width="120" height="15" as="geometry" />
        </mxCell>
        <mxCell id="wzdESjiVcGSlcyJqAEbl-31" value="" style="rounded=1;whiteSpace=wrap;html=1;fillColor=#d5e8d4;strokeColor=#82b366;" vertex="1" parent="wzdESjiVcGSlcyJqAEbl-34">
          <mxGeometry width="36" height="15" as="geometry" />
        </mxCell>
        <mxCell id="wzdESjiVcGSlcyJqAEbl-42" value="" style="group" vertex="1" connectable="0" parent="1">
          <mxGeometry x="490" y="430" width="70" height="25" as="geometry" />
        </mxCell>
        <mxCell id="wzdESjiVcGSlcyJqAEbl-38" value="" style="group" vertex="1" connectable="0" parent="wzdESjiVcGSlcyJqAEbl-42">
          <mxGeometry x="30" width="40" height="25" as="geometry" />
        </mxCell>
        <mxCell id="wzdESjiVcGSlcyJqAEbl-40" value="15.3k" style="text;html=1;align=center;verticalAlign=middle;whiteSpace=wrap;rounded=0;fontColor=#000000;" vertex="1" parent="wzdESjiVcGSlcyJqAEbl-38">
          <mxGeometry x="0.9523809523809523" width="24.76190476190476" height="25" as="geometry" />
        </mxCell>
        <mxCell id="wzdESjiVcGSlcyJqAEbl-41" value="" style="shape=mxgraph.signs.healthcare.eye;html=1;pointerEvents=1;fillColor=#000000;strokeColor=none;verticalLabelPosition=bottom;verticalAlign=top;align=center;" vertex="1" parent="wzdESjiVcGSlcyJqAEbl-42">
          <mxGeometry y="5" width="30" height="15" as="geometry" />
        </mxCell>
        <mxCell id="wzdESjiVcGSlcyJqAEbl-43" value="" style="group" vertex="1" connectable="0" parent="1">
          <mxGeometry x="400" y="430" width="58" height="25" as="geometry" />
        </mxCell>
        <mxCell id="wzdESjiVcGSlcyJqAEbl-37" value="" style="group" vertex="1" connectable="0" parent="wzdESjiVcGSlcyJqAEbl-43">
          <mxGeometry x="16" width="42" height="25" as="geometry" />
        </mxCell>
        <mxCell id="wzdESjiVcGSlcyJqAEbl-36" value="4.8" style="text;html=1;align=center;verticalAlign=middle;whiteSpace=wrap;rounded=0;fontColor=#000000;" vertex="1" parent="wzdESjiVcGSlcyJqAEbl-37">
          <mxGeometry width="26" height="25" as="geometry" />
        </mxCell>
        <mxCell id="wzdESjiVcGSlcyJqAEbl-35" value="" style="verticalLabelPosition=bottom;verticalAlign=top;html=1;shape=mxgraph.basic.star" vertex="1" parent="wzdESjiVcGSlcyJqAEbl-43">
          <mxGeometry y="7.5" width="16" height="10" as="geometry" />
        </mxCell>
        <mxCell id="wzdESjiVcGSlcyJqAEbl-44" value="" style="endArrow=classic;html=1;rounded=0;entryX=1;entryY=0.5;entryDx=0;entryDy=0;" edge="1" parent="1" target="wzdESjiVcGSlcyJqAEbl-30">
          <mxGeometry width="50" height="50" relative="1" as="geometry">
            <mxPoint x="640" y="360" as="sourcePoint" />
            <mxPoint x="610" y="550" as="targetPoint" />
          </mxGeometry>
        </mxCell>
        <mxCell id="wzdESjiVcGSlcyJqAEbl-45" value="Progress bar&amp;nbsp;&lt;div&gt;(previous results)&lt;/div&gt;" style="text;html=1;align=center;verticalAlign=middle;resizable=0;points=[];autosize=1;strokeColor=none;fillColor=none;" vertex="1" parent="1">
          <mxGeometry x="590" y="327.5" width="120" height="40" as="geometry" />
        </mxCell>
        <mxCell id="wzdESjiVcGSlcyJqAEbl-46" value="" style="endArrow=classic;html=1;rounded=0;" edge="1" parent="1" target="wzdESjiVcGSlcyJqAEbl-26">
          <mxGeometry width="50" height="50" relative="1" as="geometry">
            <mxPoint x="630" y="310" as="sourcePoint" />
            <mxPoint x="544" y="430" as="targetPoint" />
          </mxGeometry>
        </mxCell>
        <mxCell id="wzdESjiVcGSlcyJqAEbl-47" value="only selected subject test" style="text;html=1;align=center;verticalAlign=middle;resizable=0;points=[];autosize=1;strokeColor=none;fillColor=none;" vertex="1" parent="1">
          <mxGeometry x="550" y="288" width="160" height="30" as="geometry" />
        </mxCell>
        <mxCell id="wzdESjiVcGSlcyJqAEbl-48" value="" style="rounded=1;whiteSpace=wrap;html=1;" vertex="1" parent="1">
          <mxGeometry x="390.5" y="460" width="170" height="70" as="geometry" />
        </mxCell>
        <mxCell id="wzdESjiVcGSlcyJqAEbl-49" value="Personality tests" style="text;html=1;align=center;verticalAlign=middle;whiteSpace=wrap;rounded=0;fontColor=#67AB9F;" vertex="1" parent="1">
          <mxGeometry x="399.5" y="455" width="90.5" height="30" as="geometry" />
        </mxCell>
        <mxCell id="wzdESjiVcGSlcyJqAEbl-54" value="" style="group" vertex="1" connectable="0" parent="1">
          <mxGeometry x="490.5" y="510" width="70" height="25" as="geometry" />
        </mxCell>
        <mxCell id="wzdESjiVcGSlcyJqAEbl-55" value="" style="group" vertex="1" connectable="0" parent="wzdESjiVcGSlcyJqAEbl-54">
          <mxGeometry x="30" width="40" height="25" as="geometry" />
        </mxCell>
        <mxCell id="wzdESjiVcGSlcyJqAEbl-56" value="15.3k" style="text;html=1;align=center;verticalAlign=middle;whiteSpace=wrap;rounded=0;fontColor=#000000;" vertex="1" parent="wzdESjiVcGSlcyJqAEbl-55">
          <mxGeometry x="0.9523809523809523" width="24.76190476190476" height="25" as="geometry" />
        </mxCell>
        <mxCell id="wzdESjiVcGSlcyJqAEbl-57" value="" style="shape=mxgraph.signs.healthcare.eye;html=1;pointerEvents=1;fillColor=#000000;strokeColor=none;verticalLabelPosition=bottom;verticalAlign=top;align=center;" vertex="1" parent="wzdESjiVcGSlcyJqAEbl-54">
          <mxGeometry y="5" width="30" height="15" as="geometry" />
        </mxCell>
        <mxCell id="wzdESjiVcGSlcyJqAEbl-58" value="" style="group" vertex="1" connectable="0" parent="1">
          <mxGeometry x="400.5" y="510" width="58" height="25" as="geometry" />
        </mxCell>
        <mxCell id="wzdESjiVcGSlcyJqAEbl-59" value="" style="group" vertex="1" connectable="0" parent="wzdESjiVcGSlcyJqAEbl-58">
          <mxGeometry x="16" width="42" height="25" as="geometry" />
        </mxCell>
        <mxCell id="wzdESjiVcGSlcyJqAEbl-60" value="4.8" style="text;html=1;align=center;verticalAlign=middle;whiteSpace=wrap;rounded=0;fontColor=#000000;" vertex="1" parent="wzdESjiVcGSlcyJqAEbl-59">
          <mxGeometry width="26" height="25" as="geometry" />
        </mxCell>
        <mxCell id="wzdESjiVcGSlcyJqAEbl-61" value="" style="verticalLabelPosition=bottom;verticalAlign=top;html=1;shape=mxgraph.basic.star" vertex="1" parent="wzdESjiVcGSlcyJqAEbl-58">
          <mxGeometry y="7.5" width="16" height="10" as="geometry" />
        </mxCell>
        <mxCell id="wzdESjiVcGSlcyJqAEbl-62" value="" style="rounded=1;whiteSpace=wrap;html=1;" vertex="1" parent="1">
          <mxGeometry x="389" y="540" width="170" height="70" as="geometry" />
        </mxCell>
        <mxCell id="wzdESjiVcGSlcyJqAEbl-63" value="Ads" style="text;html=1;align=left;verticalAlign=middle;whiteSpace=wrap;rounded=0;fontColor=#67AB9F;" vertex="1" parent="1">
          <mxGeometry x="398" y="535" width="90.5" height="30" as="geometry" />
        </mxCell>
      </root>
    </mxGraphModel>
  </diagram>
</mxfile>
